<?xml version="1.0" encoding="UTF-8"?>
<svg version="1.1" viewBox="0 0 2048 1140" width="1280" height="1280" xmlns="http://www.w3.org/2000/svg">
<path transform="translate(0)" d="m0 0h2048v1140h-2048z" fill="#F6F9FA"/>
<path transform="translate(1099,84)" d="m0 0h10l10 5 9 9 8 10 3 2 8-1 18-6 11-1 8 3 6 5 5 10 5 22 2 4 8 3 19 4 8 4 6 7 2 6v10l-1 3h68l5 4 1 8-16 39-4 10 1 5 17 38 1 3v8l-5 6-61 1-7 1v12l-4 8-7 6-11 4-16 3-5 2-3 8-4 18-4 9-8 7-6 2-12-1-18-6-8-1-7 7-9 11-10 7-3 1h-11l-8-4-13-13-7-8-3-1-12 3-12 4-10 1-8-2-8-7-4-9-5-22-2-4-10-3-17-4-8-4-6-7-2-6v-10l1-2h-65l-6-3-3-4 1-9 19-43-1-4-19-47v-6l4-5 2-1 32-1 36 1-1-5v-7l4-10 9-7 15-4 13-3 4-4 6-25 4-8 7-6 7-2 11 1 19 6 7 1 5-5 15-16z" fill="#F6F9FA"/>
<path transform="translate(1099,84)" d="m0 0h10l10 5 9 9 8 10 3 2 8-1 18-6 11-1 8 3 6 5 5 10 5 22 2 4 8 3 19 4 8 4 6 7 2 6v10l-1 3h68l5 4 1 8-16 39-4 10 1 5 17 38 1 3v8l-5 6-61 1-7 1v12l-4 8-7 6-11 4-16 3-5 2-3 8-4 18-4 9-8 7-6 2-12-1-18-6-8-1-7 7-9 11-10 7-3 1h-11l-8-4-13-13-7-8-3-1-12 3-12 4-10 1-8-2-8-7-4-9-5-22-2-4-10-3-17-4-8-4-6-7-2-6v-10l1-2h-65l-6-3-3-4 1-9 19-43-1-4-19-47v-6l4-5 2-1 32-1 36 1-1-5v-7l4-10 9-7 15-4 13-3 4-4 6-25 4-8 7-6 7-2 11 1 19 6 7 1 5-5 15-16zm4 19-6 5-9 11-8 7-6 3h-14l-13-4-11-3-3 1-3 8-3 14-6 12-7 6-11 4-19 4-2 2 1 8 5 14 1 5v11l-6 12-8 8-8 7-4 4 2 5 9 8 8 7 6 10 1 2v12l-4 14-3 9v5l9 3 14 3 12 5 6 7 5 12 3 15 2 6 10-1 15-5 5-1h8l8 3 9 7 11 13 4 3 5-2 9-10 7-8 9-5 4-1h8l12 3 10 4 7 1 4-11 2-12 7-14 5-4 11-5 20-4 3-3-3-12-4-13v-12l5-10 7-8 10-8 4-5-3-5-10-9-5-4-6-9-2-5v-13l6-18 1-8-8-3-17-4-12-6-6-9-4-13-3-14-2-3-11 2-12 4-5 1h-10l-9-4-10-9-7-8-5-5z" fill="#D80074"/>
<path transform="translate(1274,345)" d="m0 0h10l10 4 5 4 5 8 2 8-1 16-5 23-7 20-8 16-8 14-13 16-16 16-4 3 2 5v59l-4 5-2 1h-106l-5-5-1-3v-55l3-6 3-2 7-2 18-65 4-6 13-13 8-7 16-16 9-4h12l7 2 10-4 9-7 13-18 10-6z" fill="#D80074"/>
<path transform="translate(923,346)" d="m0 0h12l9 4 7 6 10 14 9 7 9 4 5-1 3-1h12l10 5 22 22 8 7 7 7 3 5 15 54 3 11 8 3 5 6v56l-4 6-2 2h-106l-5-5-1-2v-58l2-5-13-12-9-9-12-16-9-15-8-18-5-15-4-19-1-7v-16l5-10 8-7z" fill="#D80074"/>
<path transform="translate(1103,103)" d="m0 0 4 2 9 9 7 8 7 5 6 2h10l11-3 14-4 4 1 3 9 3 15 6 12 9 6 12 4 17 4 1 4-4 13-3 10v13l5 10 6 7 10 8 5 6-3 5-9 8-7 6-6 10-1 3v12l4 13 3 12-3 3-23 5-11 6-4 5-5 11-3 16-3 7-10-2-13-5-6-1h-8l-10 4-9 8-9 11-4 3-5-2-10-11-5-6-10-6-4-1h-8l-15 4-9 3h-6l-3-9-3-15-6-12-6-5-13-5-16-3-4-2 1-9 5-14 1-5v-12l-6-11-7-7-10-8-3-4 2-4 8-8 8-7 6-9 2-5v-11l-4-13-3-10 1-5 9-3 14-3 9-4 7-6 5-11 4-18 3-5 10 2 11 4 5 1h14l10-6 7-7 9-11zm-7 39-18 3-19 7-15 9-13 12-9 10-8 13-7 16-4 18v27l4 18 6 15 9 14 9 11 10 9 14 9 13 6 13 4 13 2h20l20-4 13-5 14-8 10-8 12-12 10-15 6-13 4-13 2-11v-25l-4-18-6-15-7-12-9-11-9-9-14-10-17-8-19-5-9-1z" fill="#F6F9FA"/>
<path transform="translate(491,777)" d="m0 0h79l1 1 1 96v79l-1 1h-45l-1-1 1-38-40 1-11 35-2 3h-46l3-11 35-98 19-53 5-13z" fill="#D80074"/>
<path transform="translate(1209,832)" d="m0 0h22l12 4 8 7 4 8 4-5 10-8 8-4 7-2h23l10 3 7 4 5 8 2 6v19l-7 42 1 5 3 2h7l6-1-1 26-5 5-12 5-4 1h-12l-12-3-8-5-5-7-2-7v-14l6-36v-10l-3-5-6-2h-7l-9 3-5 4-2 4-12 68-2 6h-41l1-9 10-58v-11l-3-5-5-2h-8l-9 3-5 6-13 73-1 3h-41l-1-2 20-112 1-4h39l-1 8-1 4 7-6 10-6z" fill="#D80074"/>
<path transform="translate(1741,767)" d="m0 0h42l-5 29-21 118 1 5 2 2h8l6-1v12l-1 15-5 4-12 5-4 1h-13l-13-4-5-4-4-7v-3l-8 7-6 5-8 4-9 2h-13l-10-2-10-4-6-5-6-12-1-5v-15l7-39 5-14 7-11 7-7 10-6 12-4 6-1h17l12 3 5 3 3-19 9-51z" fill="#D80074"/>
<path transform="translate(850,767)" d="m0 0h42l-1 11-20 112-4 23 1 7 2 1h7l7-1-1 26-5 5-12 5-4 1h-13l-13-4-6-5-5-9-7 8-5 4-12 5-5 1h-13l-14-3-10-6-6-8-3-10v-17l6-34 4-14 6-11 9-10 10-7 13-4 6-1h17l9 2 8 4 1-10z" fill="#D80074"/>
<path transform="translate(1032,832)" d="m0 0h17l13 3 10 7v-6l1-1h36l1 2-13 72v10l2 2h8l6-1v13l-1 14-5 4-8 4-8 2h-12l-12-3-7-5-5-10-7 8-9 6-9 3-5 1h-13l-10-2-10-4-8-8-4-9-1-6v-13l6-35 5-16 6-11 9-10 10-6 11-4z" fill="#D80074"/>
<path transform="translate(1415,832)" d="m0 0h26l14 3 12 6 5 5 6 9 2 7v13l-8 42-5 12-6 9-7 7-14 7-16 4-9 1h-18l-17-3-12-5-8-7-4-8-1-3v-20l6-33 4-13 6-11 10-10 16-8 11-3z" fill="#D80074"/>
<path transform="translate(1575,832)" d="m0 0h21l10 3 6 5 4 7 1 4v21l-7 40v6l3 3h8l6-1-1 23-1 5-10 6-10 3h-13l-12-3-8-6-4-5-2-6v-18l6-34v-12l-3-4-3-1h-7l-8 3-4 4-13 73-2 5h-41l1-9 18-102 2-7h38l1 2-3 11h2l2-4 11-8z" fill="#D80074"/>
<path transform="translate(1096,142)" d="m0 0h15l14 2 16 5 16 8 10 7 10 9 9 10 8 13 6 14 4 15 1 6v25l-4 18-5 13-6 11-9 12-13 13-10 7-15 8-17 5-12 2h-20l-17-3-16-6-13-7-14-11-10-11-9-14-5-10-5-15-2-11v-27l4-18 8-18 8-12 9-10 7-7 13-9 14-7 17-5zm-5 20-15 4-11 5-11 7-10 9-7 8-8 14-5 14-2 11v19l3 15 5 12 7 12 9 10 7 7 11 7 11 5 14 4 7 1h16l18-4 12-5 11-7 10-9 8-9 8-14 5-14 2-11v-19l-3-15-7-16-10-14-8-8-13-9-13-6-15-4z" fill="#D80074"/>
<path transform="translate(1101,173)" d="m0 0h6l6 5 15 30 1 1 35 5 5 5 1 7-4 6-23 23 5 28 1 9-4 6-4 2-7-1-27-14-4-1-23 12-8 4h-6l-6-5v-11l4-24v-6l-26-26v-8l4-5 8-2 29-4 10-19 8-15z" fill="#D80074"/>
<path transform="translate(626,767)" d="m0 0h41l-1 10-24 135v6l3 3h7l7-1-1 26-5 5-12 5-4 1h-13l-10-2-10-5-5-8-1-4v-18l14-80 12-68z" fill="#D80074"/>
<path transform="translate(927,364)" d="m0 0 7 1 10 13 7 8 10 7 8 5 1 11 4 9 13 15 12 14 9 10h7l5-4 1-7-11-14-11-12-9-11-3-5 2-5 6-1 8 7 28 28 15 55v3h-52l-16-11-12-11-11-11-10-14-8-14-8-20-5-19-2-13v-9z" fill="#F6F9FA"/>
<path transform="translate(1275,365)" d="m0 0h7l4 4v11l-4 21-6 18-8 17-10 15-9 11-14 14-15 11-6 4h-52l1-7 13-47 3-6 28-28 7-5 5 1 2 3-1 5-24 28-7 9-1 5 3 6 4 2 6-1 7-6 9-11 13-15 7-10 2-7v-9l14-8 8-7 10-13z" fill="#F6F9FA"/>
<path transform="translate(691,835)" d="m0 0h41l-1 11-12 68 1 5 3 2h7l6-1-1 27-5 4-11 5-5 1h-13l-10-2-8-4-5-6-3-8v-15l10-58 5-27z" fill="#D80074"/>
<path transform="translate(921,835)" d="m0 0h40l1 3-9 49-4 23v9l3 2h7l6-1v17l-1 10-8 6-12 4h-14l-12-3-8-5-5-10-1-5v-9l3-20 12-66z" fill="#D80074"/>
<path transform="translate(914,202)" d="m0 0h56l1 1v6l-5 6-11 9-6 7-3 6-1 9 3 9 11 12 8 7 4 4v6l-1 1h-55l1-5 13-30 1-8-15-36z" fill="#F6F9FA"/>
<path transform="translate(1238,203)" d="m0 0h56l-16 40 1 8 13 30 1 4h-55l-1-1v-6l9-9 8-7 6-7 3-10-2-10-6-8-7-7-8-7-3-3v-6z" fill="#F6F9FA"/>
<path transform="translate(982,510)" d="m0 0h77l1 1v33h-79v-33z" fill="#F6F9FA"/>
<path transform="translate(1170,510)" d="m0 0h56l1 1v33h-79v-33z" fill="#F6F9FA"/>
<path transform="translate(1103,205)" d="m0 0h2l8 16 4 5 15 3 7 1-2 4-12 12-1 2v9l2 15-6-2-14-7-7 1-15 8h-2l1-11 1-13-7-8-8-8v-2l19-3 5-3z" fill="#F6F9FA"/>
<path transform="translate(720,765)" d="m0 0h8l10 3 6 7 1 3v13l-3 10-7 8-10 4h-16l-7-3-5-5-2-8 1-12 4-10 8-7z" fill="#D80074"/>
<path transform="translate(949,765)" d="m0 0h9l9 3 5 5 2 4v16l-4 10-4 5-8 4-4 1h-16l-8-4-4-5-1-3v-14l3-10 6-7 9-4z" fill="#D80074"/>
<path transform="translate(1417,866)" d="m0 0h10l6 4 3 6v11l-4 20-4 8-7 6-7 2-8-1-4-2-4-7v-9l4-22 5-10 7-5z" fill="#F6F9FA"/>
<path transform="translate(1044,867)" d="m0 0h9l6 3 2 3-2 14-5 27-7 6-3 1h-13l-6-4-2-3v-13l4-20 3-6 7-6z" fill="#F6F9FA"/>
<path transform="translate(814,867)" d="m0 0h9l5 2 3 3v8l-6 33-4 5-6 3h-13l-5-3-3-3-1-3 1-13 4-19 6-9z" fill="#F6F9FA"/>
<path transform="translate(1705,867)" d="m0 0h8l7 3 2 5-7 39-7 6-3 1h-13l-6-4-2-3v-13l4-21 4-6 6-5z" fill="#F6F9FA"/>
<path transform="translate(515,821)" d="m0 0h15v24l-2 37h-32l3-12 15-47z" fill="#F6F9FA"/>
</svg>
